# xmcd
#
# Track frame offsets:
#	150
#	16366
#	29879
#	49115
#	77511
#	95817
#	109417
#	131951
#	153573
#	177048
#
# Disc length: 2616 seconds
#
# Revision: 0
# Processed by: cddbd v1.5.1PL0 Copyright (c) Steve Scherf et al.
# Submitted via: dBpowerAMP V4.0
#
DISCID=880a360a
DTITLE=Reggie P. - Why Me?
DYEAR=2005
DGENRE=Blues
TTITLE0=Why Me?
TTITLE1=Come On Girl
TTITLE2=Soul Steppin'
TTITLE3=Hold On
TTITLE4=Drop That Thing
TTITLE5=Not Gonna Cry
TTITLE6=Droppin' Salt
TTITLE7=Ready To Accept
TTITLE8=Eyes Are Rainin'
TTITLE9=Soul Steppin' Remix
EXTD=
EXTT0=
EXTT1=
EXTT2=
EXTT3=
EXTT4=
EXTT5=
EXTT6=
EXTT7=
EXTT8=
EXTT9=
PLAYORDER=
